<svg height="1017pt" viewBox="1 -220 1017.761 1017" width="1017pt" xmlns="http://www.w3.org/2000/svg"><path d="m16.96875 237.964844v254.5h984.066406v-254.5zm0 0" fill="#ffeb99"/><path d="m882.265625 492.464844h67.867187v67.867187h-67.867187zm0 0" fill="#a0815c"/><path d="m67.867188 492.464844h67.867187v67.867187h-67.867187zm0 0" fill="#a0815c"/><path d="m84.832031 17.398438h-67.863281v220.566406h169.664062zm0 0" fill="#ffeb99"/><path d="m288.433594 221c28.113281 0 50.898437-22.789062 50.898437-50.902344 0-28.109375-22.785156-50.898437-50.898437-50.898437h-67.867188c-28.113281 0-50.898437 22.789062-50.898437 50.898437 0 28.113282 22.785156 50.902344 50.898437 50.902344zm0 0" fill="#fff"/><path d="m1001.035156 221h-668.183594c28.269532-24.367188 31.4375-67.039062 7.070313-95.308594-12.90625-14.972656-31.722656-23.546875-51.488281-23.460937h-67.867188c-25.683594.082031-49.113281 14.691406-60.488281 37.71875l-59.839844-129.660157c-2.773437-6.007812-8.785156-9.855468-15.40625-9.855468h-67.863281c-9.371094 0-16.96875 7.59375-16.96875 16.964844v475.066406c0 9.371094 7.597656 16.96875 16.96875 16.96875h33.929688v50.898437c0 9.371094 7.597656 16.96875 16.96875 16.96875h67.867187c9.371094 0 16.964844-7.597656 16.964844-16.96875v-50.898437h712.601562v50.898437c0 9.371094 7.597657 16.96875 16.96875 16.96875h67.867188c9.367187 0 16.964843-7.597656 16.964843-16.96875v-50.898437h33.933594c9.371094 0 16.96875-7.597656 16.96875-16.96875v-254.5c-.003906-9.371094-7.601562-16.964844-16.96875-16.964844zm-780.46875-84.835938h67.867188c18.738281 0 33.933594 15.195313 33.933594 33.933594 0 18.742188-15.195313 33.933594-33.933594 33.933594h-67.867188c-18.742187 0-33.933594-15.191406-33.933594-33.933594 0-18.738281 15.191407-33.933594 33.933594-33.933594zm-186.632812-101.796874h40.039062l86.140625 186.632812h-126.179687zm84.832031 509h-33.933594v-33.933594h33.933594zm814.402344 0h-33.933594v-33.933594h33.933594zm50.898437-67.867188h-950.132812v-220.566406h950.132812zm0 0" fill="#231f20"/></svg>